<svg width="22" height="22" viewBox="0 0 22 22" fill="none" xmlns="http://www.w3.org/2000/svg">
<g clip-path="url(#clip0_25197_22617)">
<path fill-rule="evenodd" clip-rule="evenodd" d="M10.6307 1.08641C10.8744 1.0363 11.1257 1.0363 11.3693 1.08641C11.651 1.14434 11.9028 1.28535 12.1029 1.39745C12.1215 1.40789 12.1397 1.41808 12.1575 1.42793L18.9408 5.19645C18.9595 5.20687 18.9789 5.21751 18.9987 5.22842C19.2105 5.34511 19.4769 5.49185 19.6815 5.71384C19.8584 5.90578 19.9922 6.13326 20.0741 6.38108C20.1688 6.66772 20.1677 6.97185 20.1668 7.21374C20.1668 7.23634 20.1667 7.2584 20.1667 7.27986V14.7205C20.1667 14.742 20.1668 14.7641 20.1668 14.7867C20.1677 15.0285 20.1688 15.3327 20.0741 15.6193C19.9922 15.8671 19.8584 16.0946 19.6815 16.2866C19.4769 16.5086 19.2105 16.6553 18.9987 16.772C18.9789 16.7829 18.9596 16.7935 18.9408 16.8039L12.1575 20.5725C12.1397 20.5823 12.1215 20.5925 12.1029 20.6029C11.9028 20.715 11.651 20.8561 11.3693 20.914C11.1257 20.9641 10.8744 20.9641 10.6307 20.914C10.349 20.8561 10.0973 20.715 9.89712 20.6029C9.87848 20.5925 9.86029 20.5823 9.84257 20.5725L3.05923 16.8039C3.04048 16.7935 3.02116 16.7829 3.00136 16.772C2.78949 16.6553 2.52309 16.5086 2.31851 16.2866C2.14164 16.0946 2.00778 15.8671 1.9259 15.6193C1.83119 15.3327 1.8323 15.0285 1.83318 14.7867C1.83327 14.7641 1.83335 14.742 1.83335 14.7205V7.27986C1.83335 7.25841 1.83327 7.23634 1.83318 7.21374C1.8323 6.97186 1.83119 6.66773 1.9259 6.38108C2.00778 6.13326 2.14163 5.90578 2.31851 5.71384C2.52308 5.49185 2.78948 5.34512 3.00135 5.22842C3.02115 5.21751 3.04048 5.20687 3.05923 5.19645L9.84256 1.42793C9.86029 1.41808 9.87848 1.40789 9.89712 1.39746C10.0973 1.28535 10.349 1.14434 10.6307 1.08641ZM11 2.88677C10.9986 2.88744 10.9972 2.88814 10.9956 2.88887C10.9427 2.91438 10.8718 2.95338 10.7329 3.03055L4.63756 6.41686L11 9.95154L17.3624 6.41684L11.2671 3.03055C11.1282 2.95338 11.0573 2.91438 11.0044 2.88887C11.0029 2.88814 11.0014 2.88744 11 2.88677ZM18.3333 7.97471V14.7205C18.3333 14.8883 18.333 14.9741 18.3292 15.0363C18.3291 15.0381 18.329 15.0399 18.3289 15.0415C18.3275 15.0424 18.326 15.0434 18.3245 15.0444C18.2719 15.0778 18.1971 15.1199 18.0505 15.2013L11.9167 18.609L11.9167 11.5395L18.3333 7.97471ZM10.0833 11.5395L3.66668 7.97474V14.7205C3.66668 14.8883 3.66706 14.9741 3.67081 15.0363C3.67092 15.0381 3.67103 15.0399 3.67114 15.0415C3.67255 15.0424 3.67403 15.0434 3.67557 15.0444C3.72809 15.0778 3.80295 15.1199 3.94958 15.2013L10.0833 18.609L10.0833 11.5395Z" fill="black"/>
</g>
<defs>
<clipPath id="clip0_25197_22617">
<rect width="22" height="22" fill="white"/>
</clipPath>
</defs>
</svg>
