<svg width="24" height="24" viewBox="0 0 24 24" fill="none" xmlns="http://www.w3.org/2000/svg">
<path fill-rule="evenodd" clip-rule="evenodd" d="M17 0.761475C17.5523 0.761475 18 1.20919 18 1.76147V3.76147H19C21.2091 3.76147 23 5.55234 23 7.76147V19.2384C23 21.4475 21.2091 23.2384 19 23.2384H5C2.79086 23.2384 1 21.4475 1 19.2384V7.76147C1 5.55234 2.79086 3.76147 5 3.76147H6V1.76147C6 1.20919 6.44772 0.761475 7 0.761475C7.55228 0.761475 8 1.20919 8 1.76147V3.76147H16V1.76147C16 1.20919 16.4477 0.761475 17 0.761475ZM5 5.76147C3.89543 5.76147 3 6.65691 3 7.76147V19.2384C3 20.343 3.89543 21.2384 5 21.2384H19C20.1046 21.2384 21 20.343 21 19.2384V7.76147C21 6.65691 20.1046 5.76147 19 5.76147H5Z" fill="black"/>
<path d="M7.69998 10.6115C7.69998 9.78302 8.37156 9.11144 9.19999 9.11144C10.0284 9.11144 10.7 9.78302 10.7 10.6115C10.7 11.4399 10.0284 12.1115 9.19999 12.1115C8.37156 12.1115 7.69998 11.4399 7.69998 10.6115Z" fill="black"/>
<path d="M13.7 10.6115C13.7 9.78302 14.3716 9.11144 15.2 9.11144C16.0284 9.11144 16.7 9.78302 16.7 10.6115C16.7 11.4399 16.0284 12.1115 15.2 12.1115C14.3716 12.1115 13.7 11.4399 13.7 10.6115Z" fill="black"/>
<path d="M7.59999 14.8114C8.04043 14.4811 8.66468 14.5691 8.99686 15.0073L9.0015 15.0132C9.00745 15.0207 9.01877 15.0348 9.03531 15.0545C9.06846 15.094 9.12219 15.1556 9.19543 15.232C9.34272 15.3857 9.56407 15.5943 9.85067 15.8027C10.4277 16.2224 11.2255 16.6114 12.2 16.6114C13.1745 16.6114 13.9723 16.2224 14.5493 15.8027C14.8359 15.5943 15.0573 15.3857 15.2046 15.232C15.2778 15.1556 15.3315 15.094 15.3647 15.0545C15.3812 15.0348 15.3925 15.0207 15.3985 15.0132L15.4031 15.0073C15.7353 14.5691 16.3596 14.4811 16.8 14.8114C17.2418 15.1428 17.3314 15.7696 17 16.2115L16.9978 16.2143L16.9951 16.218L16.9879 16.2274L16.9666 16.2546C16.9493 16.2764 16.926 16.3053 16.8966 16.3403C16.838 16.4101 16.755 16.5048 16.6486 16.6159C16.4365 16.8372 16.1266 17.1286 15.7257 17.4202C14.9277 18.0005 13.7255 18.6115 12.2 18.6115C10.6745 18.6115 9.47225 18.0005 8.67431 17.4202C8.27342 17.1286 7.96351 16.8372 7.75143 16.6159C7.64498 16.5048 7.56199 16.4101 7.50335 16.3403C7.47399 16.3053 7.45064 16.2764 7.43339 16.2546L7.4121 16.2274L7.40489 16.218L7.40215 16.2143L7.39998 16.2115C7.06861 15.7696 7.15815 15.1428 7.59999 14.8114Z" fill="black"/>
</svg>
