<svg width="24" height="24" viewBox="0 0 24 24" fill="none" xmlns="http://www.w3.org/2000/svg">
<path d="M8 10C8.55228 10 9 10.4477 9 11V14C9 14.5523 8.55228 15 8 15C7.44771 15 7 14.5523 7 14V11C7 10.4477 7.44772 10 8 10Z" fill="black"/>
<path d="M17 11C17 10.4477 16.5523 10 16 10C15.4477 10 15 10.4477 15 11V14C15 14.5523 15.4477 15 16 15C16.5523 15 17 14.5523 17 14V11Z" fill="black"/>
<path fill-rule="evenodd" clip-rule="evenodd" d="M17 1C17.5523 1 18 1.44772 18 2V4H19C21.2091 4 23 5.79086 23 8V18C23 20.2091 21.2091 22 19 22H5C2.79086 22 1 20.2091 1 18V8C1 5.79086 2.79086 4 5 4H6V2C6 1.44772 6.44772 1 7 1C7.55228 1 8 1.44772 8 2V4H16V2C16 1.44772 16.4477 1 17 1ZM5 6C3.89543 6 3 6.89543 3 8V18C3 19.1046 3.89543 20 5 20H19C20.1046 20 21 19.1046 21 18V8C21 6.89543 20.1046 6 19 6H5Z" fill="black"/>
</svg>
