<svg width="24" height="24" viewBox="0 0 24 24" fill="none" xmlns="http://www.w3.org/2000/svg">
<path fill-rule="evenodd" clip-rule="evenodd" d="M8.97935 2.00001L6.7587 2.00001C5.95373 2 5.28937 1.99999 4.74817 2.0442C4.18608 2.09013 3.66937 2.18869 3.18404 2.43598C2.43139 2.81948 1.81947 3.4314 1.43597 4.18405C1.18868 4.66938 1.09012 5.18609 1.04419 5.74818C0.999977 6.28938 0.999988 6.95374 1 7.75871V16.2413C0.999988 17.0463 0.999977 17.7106 1.04419 18.2518C1.09012 18.8139 1.18868 19.3306 1.43597 19.816C1.81947 20.5686 2.43139 21.1805 3.18404 21.564C3.66937 21.8113 4.18608 21.9099 4.74817 21.9558C5.28936 22 5.95372 22 6.75868 22H17.2413C18.0463 22 18.7106 22 19.2518 21.9558C19.8139 21.9099 20.3306 21.8113 20.816 21.564C21.5686 21.1805 22.1805 20.5686 22.564 19.816C22.8113 19.3306 22.9099 18.8139 22.9558 18.2518C23 17.7106 23 17.0463 23 16.2413V7.75869C23 6.95373 23 6.28937 22.9558 5.74818C22.9099 5.18609 22.8113 4.66938 22.564 4.18405C22.1805 3.4314 21.5686 2.81948 20.816 2.43598C20.3306 2.18869 19.8139 2.09013 19.2518 2.0442C18.7106 1.99999 18.0463 2 17.2413 2.00001L16.0185 2.00001C16.0054 1.99975 15.9924 1.99975 15.9794 2.00001H9.01853C9.00543 1.99975 8.99237 1.99975 8.97935 2.00001ZM14.7802 4.00001H9.81981L9.2198 7.00001H14.1802L14.7802 4.00001ZM16.8198 4.00001L16.2198 7.00001H20.9982C20.9951 6.55448 20.9864 6.20464 20.9624 5.91105C20.9266 5.47263 20.8617 5.24843 20.782 5.09203C20.5903 4.7157 20.2843 4.40974 19.908 4.218C19.7516 4.13831 19.5274 4.07338 19.089 4.03756C18.6389 4.00079 18.0566 4.00001 17.2 4.00001H16.8198ZM21 9.00001H15.0207C15.0076 9.00027 14.9946 9.00027 14.9815 9.00001H8.02065C8.00763 9.00027 7.99457 9.00027 7.98147 9.00001H3V16.2C3 17.0566 3.00078 17.6389 3.03755 18.089C3.07337 18.5274 3.1383 18.7516 3.21799 18.908C3.40973 19.2843 3.7157 19.5903 4.09202 19.782C4.24842 19.8617 4.47262 19.9266 4.91104 19.9625C5.36113 19.9992 5.94342 20 6.8 20H17.2C18.0566 20 18.6389 19.9992 19.089 19.9625C19.5274 19.9266 19.7516 19.8617 19.908 19.782C20.2843 19.5903 20.5903 19.2843 20.782 18.908C20.8617 18.7516 20.9266 18.5274 20.9624 18.089C20.9992 17.6389 21 17.0566 21 16.2V9.00001ZM3.00176 7.00001H7.1802L7.7802 4.00001H6.8C5.94342 4.00001 5.36113 4.00079 4.91104 4.03756C4.47262 4.07338 4.24842 4.13831 4.09202 4.218C3.7157 4.40974 3.40973 4.7157 3.21799 5.09203C3.1383 5.24843 3.07337 5.47263 3.03755 5.91105C3.01357 6.20464 3.00489 6.55448 3.00176 7.00001Z" fill="black"/>
</svg>
