<svg width="24" height="24" viewBox="0 0 24 24" fill="none" xmlns="http://www.w3.org/2000/svg">
<path fill-rule="evenodd" clip-rule="evenodd" d="M10.4069 4H13.5931C14.8699 3.99999 15.8872 3.99999 16.7118 4.0653C17.5576 4.1323 18.2813 4.27242 18.9534 4.59692C20.0418 5.12248 20.9461 5.9645 21.5479 7.01271C21.9194 7.65992 22.1108 8.37184 22.2379 9.21073C22.3617 10.0286 22.4342 11.0433 22.5252 12.3168L22.7742 15.8033C22.9362 18.071 21.1401 20 18.8665 20C17.7039 20 16.6013 19.4836 15.8569 18.5904L15.4818 18.1402C15.1164 17.7017 15.0066 17.5752 14.8916 17.4773C14.6185 17.2448 14.288 17.09 13.9345 17.0291C13.7857 17.0034 13.6182 17 13.0474 17H10.9526C10.3818 17 10.2143 17.0034 10.0655 17.0291C9.71204 17.09 9.3815 17.2448 9.10845 17.4773C8.99345 17.5752 8.88363 17.7017 8.51822 18.1402L8.14306 18.5904C7.39874 19.4836 6.29613 20 5.13346 20C2.8599 20 1.06381 18.071 1.22579 15.8033L1.47482 12.3169C1.56579 11.0433 1.63826 10.0286 1.76216 9.21073C1.88924 8.37184 2.08057 7.65992 2.45213 7.01271C3.0539 5.9645 3.95822 5.12248 5.04663 4.59692C5.71867 4.27242 6.44242 4.1323 7.28823 4.0653C8.11282 3.99999 9.13011 3.99999 10.4069 4ZM7.44615 6.05906C6.72198 6.11642 6.27442 6.22502 5.91629 6.39795C5.19068 6.74832 4.5878 7.30967 4.18662 8.00847C3.98861 8.35338 3.8484 8.79206 3.73959 9.5103C3.62895 10.2406 3.56139 11.1763 3.46675 12.5013L3.22071 15.9458C3.14142 17.0558 4.02058 18 5.13346 18C5.70257 18 6.24228 17.7472 6.60662 17.31L6.98178 16.8598C6.99797 16.8404 7.01393 16.8212 7.02969 16.8023C7.32634 16.4461 7.54994 16.1776 7.81177 15.9546C8.35787 15.4896 9.01896 15.1799 9.72581 15.0581C10.0647 14.9997 10.4141 14.9998 10.8777 15C10.9023 15 10.9273 15 10.9526 15H13.0474C13.0727 15 13.0977 15 13.1223 15C13.5859 14.9998 13.9353 14.9997 14.2742 15.0581C14.981 15.1799 15.6421 15.4896 16.1882 15.9546C16.4501 16.1776 16.6737 16.4461 16.9703 16.8023C16.9861 16.8212 17.002 16.8404 17.0182 16.8598L17.3934 17.31C17.7577 17.7472 18.2974 18 18.8665 18C19.9794 18 20.8586 17.0558 20.7793 15.9458L20.5333 12.5013C20.4386 11.1763 20.3711 10.2406 20.2604 9.5103C20.1516 8.79206 20.0114 8.35338 19.8134 8.00848C19.4122 7.30967 18.8093 6.74832 18.0837 6.39795C17.7256 6.22502 17.278 6.11642 16.5539 6.05906C15.8175 6.00073 14.8794 6 13.5511 6H10.449C9.12063 6 8.18252 6.00073 7.44615 6.05906ZM8 8C8.55229 8 9 8.44772 9 9V10H10C10.5523 10 11 10.4477 11 11C11 11.5523 10.5523 12 10 12H9V13C9 13.5523 8.55229 14 8 14C7.44772 14 7 13.5523 7 13V12H6C5.44772 12 5 11.5523 5 11C5 10.4477 5.44772 10 6 10H7V9C7 8.44772 7.44772 8 8 8ZM17 10C17 9.44772 17.4477 9 18 9H18.01C18.5623 9 19.01 9.44772 19.01 10C19.01 10.5523 18.5623 11 18.01 11H18C17.4477 11 17 10.5523 17 10ZM14 12C14 11.4477 14.4477 11 15 11H15.01C15.5623 11 16.01 11.4477 16.01 12C16.01 12.5523 15.5623 13 15.01 13H15C14.4477 13 14 12.5523 14 12Z" fill="black"/>
</svg>
