<svg width="152" height="32" viewBox="0 0 152 32" fill="none" xmlns="http://www.w3.org/2000/svg">
<path d="M8.17756 13.7815V12.8684C7.86118 12.8262 7.53408 12.7998 7.20697 12.7998C3.23349 12.7998 0 15.9822 0 19.893C0 22.2943 1.21725 24.4159 3.07798 25.6984C1.87682 24.4318 1.14218 22.7324 1.14218 20.8694C1.14218 17.0167 4.2845 13.8712 8.17756 13.7815Z" fill="#00F7EF"/>
<path d="M8.3472 24.1102C10.1221 24.1102 11.5646 22.7221 11.6343 20.9911V5.54863H14.5032C14.4442 5.23197 14.412 4.90476 14.412 4.57227H10.4975L10.4921 20.0147C10.4278 21.7458 8.97995 23.1338 7.20502 23.1338C6.6527 23.1338 6.13256 22.9966 5.67676 22.7591C6.27734 23.5771 7.24792 24.1102 8.3472 24.1102Z" fill="#00F7EF"/>
<path d="M19.855 10.7893V9.92901C18.7611 9.92901 17.7423 9.60708 16.8896 9.06348C17.6511 9.92374 18.686 10.5465 19.855 10.7893Z" fill="#00F7EF"/>
<path d="M16.8916 9.06375C16.0604 8.12433 15.551 6.89463 15.551 5.54883H14.5C14.7788 7.01602 15.6636 8.27738 16.8916 9.06375Z" fill="#FF004F"/>
<path d="M7.20751 16.6532C5.39504 16.6532 3.91504 18.1045 3.91504 19.8937C3.91504 21.1392 4.63359 22.2158 5.67925 22.7594C5.2878 22.2264 5.05722 21.5772 5.05722 20.87C5.05722 19.0862 6.53186 17.6295 8.34969 17.6295C8.68752 17.6295 9.01462 17.6823 9.32027 17.7773V13.8455C9.00389 13.8032 8.67679 13.7769 8.34969 13.7769C8.2907 13.7769 8.23708 13.7821 8.17809 13.7821V16.801C7.87244 16.7112 7.54534 16.6532 7.20751 16.6532Z" fill="#FF004F"/>
<path d="M19.8564 10.7891V13.7815C17.824 13.7815 15.9472 13.1429 14.4082 12.0557V19.8878C14.4082 23.7985 11.1748 26.9809 7.20126 26.9809C5.66763 26.9809 4.24125 26.5059 3.07227 25.6932C4.38604 27.0865 6.26285 27.9573 8.34344 27.9573C12.3169 27.9573 15.5504 24.7749 15.5504 20.8641V13.0373C17.084 14.1245 18.9662 14.7631 20.9985 14.7631V10.9104C20.6071 10.9104 20.2264 10.8682 19.8564 10.7891Z" fill="#FF004F"/>
<path d="M14.4134 19.8936V12.0616C15.947 13.1488 17.8292 13.7874 19.8615 13.7874V10.7949C18.6872 10.5469 17.6576 9.92938 16.8961 9.06912C15.6682 8.28275 14.7834 7.02139 14.5099 5.5542H11.6357L11.6303 20.9966C11.566 22.7277 10.1181 24.1157 8.34321 24.1157C7.24394 24.1157 6.27335 23.5827 5.67813 22.7647C4.63248 22.2211 3.91393 21.1391 3.91393 19.8989C3.91393 18.115 5.38857 16.6584 7.2064 16.6584C7.54423 16.6584 7.87133 16.7112 8.17698 16.8062V13.7874C4.28393 13.8718 1.1416 17.0173 1.1416 20.87C1.1416 22.733 1.87624 24.4324 3.0774 25.699C4.24639 26.5065 5.67277 26.9868 7.2064 26.9868C11.1799 26.9868 14.4134 23.8044 14.4134 19.8936Z" fill="#252632"/>
<path d="M36.5705 13.6424C35.1548 13.1208 33.7391 12.6736 32.3234 12.301V10.1211C33.7391 10.4937 35.1548 10.9409 36.5705 11.4626V13.6424ZM36.5705 17.8345C35.2092 17.3314 33.6846 16.8843 32.3234 16.5303V14.3504C33.6846 14.6858 35.2092 15.1143 36.5705 15.5987V17.8345ZM39.7467 21.1322V25.6969H37.5687V21.393L31.2707 22.1569L30.9803 20.1634L37.5687 19.3809V8.92871H39.7467V19.1387L41.598 18.9151V20.9086L39.7467 21.1322ZM29.6735 18.7288V23.3866C29.6735 24.8026 28.9112 25.4733 27.6044 25.5665C27.0599 25.6037 26.4609 25.5665 25.862 25.436L25.3538 23.517C25.9527 23.6474 26.5335 23.6847 27.0599 23.6474C27.3503 23.6288 27.6044 23.4239 27.6044 22.9953V19.12L25.5171 19.5113L25.1904 17.4805L27.6044 17.0706V14.0523H25.6442L25.4627 12.1147H27.6044V8.92871H29.6735V12.1147H31.5248V14.0523H29.6735V16.7166L31.4885 16.3999V18.3748L29.6735 18.7288Z" fill="black"/>
<path d="M56.8984 17.1637C57.8422 17.1637 58.3504 17.6854 58.3504 18.6356V23.7965C58.3504 24.7653 57.8422 25.2684 56.8984 25.2684H46.317C45.3551 25.2684 44.865 24.7653 44.865 23.7965V18.6356C44.865 17.6854 45.3551 17.1637 46.317 17.1637H56.8984ZM56.3177 14.1268H59.7117V15.99H43.6308L43.4493 14.1268H46.9886L46.4985 12.5618H48.7491L49.221 14.1268H54.0489L54.5389 12.5618H56.8077L56.3177 14.1268ZM56.1725 22.0265H47.043V23.1258C47.043 23.2934 47.1519 23.4052 47.3153 23.4052H55.9002C56.0636 23.4052 56.1725 23.2934 56.1725 23.1258V22.0265ZM56.1725 20.3311V19.3063C56.1725 19.1573 56.0636 19.0269 55.9002 19.0269H47.3153C47.1519 19.0269 47.043 19.1573 47.043 19.3063V20.3311H56.1725ZM52.6877 10.2888H58.7497V12.1519H44.5746L44.3931 10.2888H50.4734V8.92871H52.6877V10.2888Z" fill="black"/>
<path d="M77.4805 23.4425C77.4805 24.6349 76.7001 25.5292 75.4477 25.6224C74.7036 25.6782 73.6327 25.6037 72.5982 25.3801L72.1081 23.4611C72.9793 23.6661 73.7598 23.7406 74.3406 23.6847C74.9577 23.6288 75.2662 23.3307 75.2662 22.7345V8.92871H77.4805V23.4425ZM73.8687 20.9832H71.727V10.6614H73.8687V20.9832ZM67.4799 10.5683L70.9465 12.9531V15.4683L66.5179 12.2823C65.8645 13.2325 65.0478 14.1082 64.0495 14.9653C64.1403 14.9466 64.231 14.9466 64.3218 14.9466H68.4237C69.4038 14.9466 69.9664 15.431 70.0753 16.4371C70.1842 17.4618 70.1842 18.3561 70.0753 19.3995C69.9846 20.3497 69.2586 21.0763 68.2966 21.1322C67.6251 21.1695 66.8265 21.1322 66.1005 20.9645L65.6104 19.12C66.282 19.2877 66.8991 19.3436 67.4073 19.3063C67.734 19.2877 67.8973 19.0455 67.9336 18.7101C67.9881 18.1885 67.9881 17.5923 67.9336 17.0892C67.9155 16.9029 67.8066 16.8097 67.6251 16.8097H65.2837C65.1022 16.8097 65.0115 16.9029 65.0115 17.0892V22.7531C65.0115 23.2562 65.32 23.4984 65.8282 23.5543C66.5724 23.6288 67.2984 23.6288 68.0244 23.5543C68.5326 23.4984 68.8593 23.2375 68.8593 22.7531V21.2813L70.9647 21.5794V23.4611C70.9647 24.5231 70.0572 25.3056 68.9682 25.4174C67.5706 25.5665 66.2275 25.5665 64.8663 25.4174C63.7773 25.3056 62.8698 24.5231 62.8698 23.4611V16.4371C62.8698 16.2135 62.8879 16.0086 62.9424 15.8409C62.5431 16.139 62.1256 16.4371 61.6719 16.7352L61.0548 14.4063C63.4506 12.8599 65.0478 11.1272 65.919 8.94734H68.0788C67.8973 9.52491 67.6977 10.0652 67.4799 10.5683Z" fill="black"/>
<path d="M90.7663 21.5235V25.6969H88.5702V13.3816H88.2798C87.6082 14.8721 86.5737 16.2694 85.0854 17.6295L84.4501 15.2261C86.0473 13.5679 86.9004 11.6489 87.2452 8.92871H89.4232C89.3325 9.80438 89.1873 10.6428 88.9876 11.4439H96.3565V13.3816H90.7663V15.431H95.6668V17.3687H90.7663V19.5858H95.9754V21.5235H90.7663ZM81.5824 15.3751H82.3447C83.1615 15.3751 83.6152 15.8409 83.6152 16.6793V25.6969H81.3283V16.7352H80.1486L79.477 14.7417C81.3828 13.0462 82.3084 10.9036 82.7985 8.92871H85.0672C84.4501 11.5744 83.4882 13.7915 81.5824 15.3751Z" fill="black"/>
<path d="M111.24 14.0523H114.198V15.8968H109.189C108.463 16.4371 107.682 16.9215 106.865 17.3687H111.548C112.401 17.3687 112.855 17.8904 112.855 18.8592V23.9455C112.855 24.933 112.401 25.436 111.548 25.436H101.529C100.658 25.436 100.222 24.933 100.222 23.9455V19.9398C99.5691 20.1261 98.8975 20.3124 98.2078 20.4987L97.4274 18.263C100.458 17.6482 103.036 16.9215 105.214 15.8968H98.1352L97.9537 14.0523H104.125V12.6177H99.5509L99.3694 10.7918H104.125V8.9846H106.303V10.7918H110.005V12.3569C110.568 11.7048 111.094 10.9782 111.548 10.1584H113.944C113.163 11.6675 112.274 12.9531 111.24 14.0523ZM110.677 22.2687H102.4V23.3307C102.4 23.4984 102.491 23.6102 102.636 23.6102H110.441C110.586 23.6102 110.677 23.4984 110.677 23.3307V22.2687ZM110.677 20.5174V19.474C110.677 19.325 110.586 19.1946 110.441 19.1946H102.636C102.491 19.1946 102.4 19.325 102.4 19.474V20.5174H110.677ZM109.787 12.6177H106.303V14.0523H108.245C108.789 13.6238 109.297 13.1394 109.787 12.6177Z" fill="black"/>
<path d="M125.324 20.6478V25.6969H123.11V20.6478H118.046C117.066 20.6478 116.594 20.1634 116.594 19.1573V13.0835C116.594 12.0774 117.066 11.593 118.046 11.593H123.11V8.92871H125.324V11.593H130.37C131.35 11.593 131.822 12.0774 131.822 13.0835V19.1573C131.822 20.1634 131.35 20.6478 130.37 20.6478H125.324ZM125.324 18.7101H129.335C129.517 18.7101 129.607 18.617 129.607 18.4307V13.8101C129.607 13.6238 129.517 13.5306 129.335 13.5306H125.324V18.7101ZM123.11 18.7101V13.5306H119.08C118.899 13.5306 118.808 13.6238 118.808 13.8101V18.4307C118.808 18.617 118.899 18.7101 119.08 18.7101H123.11Z" fill="black"/>
<path d="M134.816 21.6911L135.706 13.2698H137.757L136.867 21.6911H134.816ZM140.987 22.2501C140.987 22.809 141.187 23.1071 141.677 23.2189C142.512 23.4052 144.472 23.4239 145.253 23.2189C145.833 23.0699 145.997 22.8277 145.997 22.3619V19.9957L148.138 20.2938V23.2934C148.138 24.5231 147.612 25.0634 146.215 25.2497C144.962 25.4174 142.058 25.436 140.679 25.2497C139.535 25.1007 138.737 24.3927 138.737 23.1444V11.6302H140.987V22.2501ZM143.165 14.8348L141.804 8.94734H143.964L145.325 14.8348H143.165ZM148.828 20.6292L146.886 13.2698H149.028L150.952 20.6292H148.828Z" fill="black"/>
</svg>
