<svg width="24" height="24" viewBox="0 0 24 24" fill="none" xmlns="http://www.w3.org/2000/svg">
<path d="M11.0176 20.9164V17.1625C11.0176 16.6103 11.4653 16.1626 12.0176 16.1625C12.5699 16.1625 13.0176 16.6103 13.0176 17.1625V20.9164C13.0174 21.4686 12.5697 21.9164 12.0176 21.9164C11.4655 21.9164 11.0177 21.4685 11.0176 20.9164ZM11.0752 3.11176C11.0752 2.55947 11.5229 2.11176 12.0752 2.11176C12.6273 2.11193 13.0752 2.55958 13.0752 3.11176V11.475L20.0625 15.6293C20.5372 15.9115 20.6933 16.5247 20.4111 16.9995C20.129 17.4741 19.5157 17.6301 19.041 17.3481L12.0693 13.2045L4.95702 17.352C4.47993 17.6301 3.86705 17.4697 3.58886 16.9926C3.31072 16.5156 3.47222 15.9027 3.94921 15.6245L11.0752 11.4702V3.11176ZM3.47948 7.08832C3.76051 6.61288 4.37416 6.45572 4.8496 6.73676L8.10643 8.66156C8.58174 8.94264 8.73899 9.5563 8.458 10.0317C8.1769 10.5067 7.56411 10.664 7.08886 10.3832L3.83202 8.45844C3.35659 8.17741 3.19848 7.56375 3.47948 7.08832ZM19.043 6.73676C19.5183 6.4558 20.131 6.61318 20.4121 7.08832C20.6931 7.56375 20.536 8.1774 20.0605 8.45844L16.8037 10.3832C16.3284 10.664 15.7157 10.5067 15.4346 10.0317C15.1536 9.55629 15.3108 8.94263 15.7861 8.66156L19.043 6.73676Z" fill="black"/>
</svg>
