<svg width="16" height="16" viewBox="0 0 16 16" fill="none" xmlns="http://www.w3.org/2000/svg">
<path fill-rule="evenodd" clip-rule="evenodd" d="M7.99944 1.99935C7.44715 1.99935 6.99944 2.44706 6.99944 2.99935C6.99944 3.14674 7.03106 3.28634 7.08813 3.41209C7.38686 3.35953 7.69206 3.33268 7.99944 3.33268C8.30681 3.33268 8.61202 3.35953 8.91074 3.41209C8.96781 3.28634 8.99944 3.14674 8.99944 2.99935C8.99944 2.44706 8.55172 1.99935 7.99944 1.99935ZM10.1866 3.81367C10.281 3.56006 10.3328 3.2856 10.3328 2.99935C10.3328 1.71068 9.2881 0.666016 7.99944 0.666016C6.71077 0.666016 5.6661 1.71068 5.6661 2.99935C5.6661 3.2856 5.71783 3.56006 5.81232 3.81366C5.42172 3.99685 5.05806 4.2304 4.73439 4.51092C3.8513 5.27627 3.33277 6.33649 3.33277 7.46602C3.33277 8.87112 2.98593 9.86596 2.57763 10.5565L2.57082 10.568C2.30829 11.012 2.10325 11.3587 1.96573 11.6077C1.89698 11.7321 1.83649 11.8474 1.79252 11.9462C1.77071 11.9952 1.74665 12.054 1.72791 12.1164C1.71393 12.163 1.67954 12.2837 1.69384 12.43C1.70169 12.5103 1.71971 12.6698 1.8126 12.8327C1.90549 12.9955 2.03365 13.0922 2.09879 13.1399C2.20496 13.2175 2.31119 13.2508 2.3641 13.2654C2.42654 13.2827 2.48721 13.2929 2.53752 13.2997C2.63811 13.3131 2.75523 13.32 2.87731 13.3242C3.12066 13.3327 3.46093 13.3327 3.88967 13.3327H5.41678C5.71281 14.4828 6.75688 15.3327 7.99944 15.3327C9.242 15.3327 10.2861 14.4828 10.5821 13.3327H12.1092C12.5379 13.3327 12.8782 13.3327 13.1216 13.3242C13.2436 13.32 13.3608 13.3131 13.4614 13.2997C13.5117 13.2929 13.5723 13.2827 13.6348 13.2654C13.6877 13.2508 13.7939 13.2175 13.9001 13.1399C13.9652 13.0922 14.0934 12.9955 14.1863 12.8327C14.2792 12.6698 14.2972 12.5103 14.305 12.43C14.3193 12.2837 14.2849 12.163 14.271 12.1164C14.2522 12.054 14.2282 11.9952 14.2064 11.9462C14.1624 11.8474 14.1019 11.7321 14.0331 11.6077C13.8956 11.3587 13.6906 11.0119 13.428 10.5679L13.4212 10.5565C13.0129 9.86596 12.6661 8.87112 12.6661 7.46602C12.6661 6.33649 12.1476 5.27627 11.2645 4.51092C10.9408 4.2304 10.5772 3.99685 10.1866 3.81367ZM9.00888 4.79807C9.01732 4.80055 9.02581 4.80286 9.03432 4.80499C9.54729 4.94639 10.0136 5.19119 10.3912 5.51851C11.0084 6.05341 11.3328 6.75671 11.3328 7.46602C11.3328 9.10331 11.7404 10.3335 12.2735 11.2351C12.4569 11.5453 12.6056 11.7967 12.7218 11.998C12.5489 11.9993 12.3414 11.9993 12.094 11.9993H3.9049C3.65747 11.9993 3.44992 11.9993 3.27707 11.998C3.39332 11.7967 3.54195 11.5453 3.72533 11.2351C4.25845 10.3335 4.6661 9.10331 4.6661 7.46602C4.6661 6.75671 4.99043 6.05341 5.60763 5.51851C5.9853 5.19119 6.45159 4.94639 6.96456 4.80499C6.97307 4.80285 6.98155 4.80055 6.98999 4.79807C7.3119 4.71174 7.6518 4.66602 7.99944 4.66602C8.34707 4.66602 8.68698 4.71174 9.00888 4.79807ZM6.84448 13.3327C7.07502 13.7312 7.50592 13.9993 7.99944 13.9993C8.49296 13.9993 8.92386 13.7312 9.1544 13.3327H6.84448Z" fill="#1C1F23" fill-opacity="0.6"/>
</svg>
