<svg width="16" height="16" viewBox="0 0 16 16" fill="none" xmlns="http://www.w3.org/2000/svg">
<path fill-rule="evenodd" clip-rule="evenodd" d="M5.17214 1.33398H10.8272C11.3639 1.33398 11.8068 1.33397 12.1676 1.36345C12.5423 1.39406 12.8868 1.45977 13.2103 1.62463C13.7121 1.8803 14.12 2.28825 14.3757 2.79001C14.5406 3.11357 14.6063 3.45804 14.6369 3.83277C14.6664 4.19356 14.6663 4.63646 14.6663 5.1731V10.8282C14.6663 11.3648 14.6664 11.8077 14.6369 12.1685C14.6063 12.5433 14.5406 12.8877 14.3757 13.2113C14.12 13.7131 13.7121 14.121 13.2103 14.3767C12.8868 14.5415 12.5423 14.6072 12.1676 14.6379C11.8068 14.6673 11.3639 14.6673 10.8272 14.6673H5.17213C4.63549 14.6673 4.19258 14.6673 3.83179 14.6379C3.45706 14.6072 3.11259 14.5415 2.78903 14.3767C2.28727 14.121 1.87932 13.7131 1.62366 13.2113C1.4588 12.8877 1.39309 12.5433 1.36247 12.1685C1.33299 11.8077 1.333 11.3648 1.33301 10.8282V5.17312C1.333 4.63647 1.33299 4.19356 1.36247 3.83277C1.39309 3.45804 1.4588 3.11357 1.62366 2.79001C1.87932 2.28824 2.28727 1.8803 2.78903 1.62463C3.11259 1.45977 3.45706 1.39406 3.83179 1.36345C4.19259 1.33397 4.6355 1.33398 5.17214 1.33398ZM6.66634 13.334H10.7997C11.3707 13.334 11.7589 13.3335 12.059 13.3089C12.3513 13.2851 12.5007 13.2418 12.605 13.1887C12.8559 13.0608 13.0599 12.8569 13.1877 12.606C13.2408 12.5017 13.2841 12.3522 13.308 12.06C13.3325 11.7599 13.333 11.3717 13.333 10.8007V5.20065C13.333 4.6296 13.3325 4.2414 13.308 3.94134C13.2841 3.64907 13.2408 3.4996 13.1877 3.39533C13.0599 3.14445 12.8559 2.94047 12.605 2.81264C12.5007 2.75952 12.3513 2.71623 12.059 2.69235C11.7589 2.66784 11.3707 2.66732 10.7997 2.66732H6.66634V13.334ZM5.33301 2.66732V13.334H5.19967C4.62862 13.334 4.24043 13.3335 3.94037 13.3089C3.64809 13.2851 3.49862 13.2418 3.39435 13.1887C3.14347 13.0608 2.9395 12.8569 2.81167 12.606C2.75854 12.5017 2.71526 12.3522 2.69138 12.06C2.66686 11.7599 2.66634 11.3717 2.66634 10.8007V5.20065C2.66634 4.6296 2.66686 4.2414 2.69138 3.94134C2.71526 3.64907 2.75854 3.4996 2.81167 3.39533C2.9395 3.14445 3.14347 2.94047 3.39435 2.81264C3.49862 2.75952 3.64809 2.71623 3.94037 2.69235C4.24043 2.66784 4.62862 2.66732 5.19968 2.66732H5.33301Z" fill="#1C1F23" fill-opacity="0.6"/>
</svg>
