<svg width="510" height="90" viewBox="0 0 510 90" fill="none" xmlns="http://www.w3.org/2000/svg">
<path d="M181.417 52.0557L189.756 51.085V59.0361L181.417 60V79.7363H172.318V61.0498L143.909 64.3633L143.819 63.7725L142.8 57.0361L142.705 56.4043L143.341 56.3301L172.318 53.0205V7.77832H181.417V52.0557ZM136.066 21.5811H144.4V29.293H136.079V41.5811L144.25 40.2109V48.0801L143.746 48.1729L136.079 49.6143V70.0762L136.071 70.5879C135.987 73.1123 135.266 75.1408 133.817 76.6025C132.374 78.0582 130.288 78.87 127.633 79.1309L127.093 79.1758C124.758 79.3323 122.298 79.1811 119.938 78.7363L119.558 78.666L119.456 78.2939L117.475 71.1045L118.421 71.2539C120.545 71.5882 122.637 71.6848 124.68 71.5469H124.684L124.947 71.5195C125.56 71.4297 126.146 71.1622 126.594 70.7197C127.097 70.2222 127.463 69.4659 127.463 68.3809V51.1836L118.004 52.8867L117.899 52.2695L116.641 44.7686L127.457 42.999V29.293H118.599L117.847 21.5811H127.457V7.77832H136.066V21.5811ZM255.104 43.4551C257.043 43.4552 258.615 43.9335 259.7 44.9902C260.789 46.0503 261.285 47.5915 261.285 49.4902V71.8467L261.262 72.5488C261.155 74.1438 260.671 75.4422 259.722 76.3672C258.64 77.4213 257.063 77.8837 255.104 77.8838H207.466C205.488 77.8838 203.909 77.4357 202.83 76.3848C201.883 75.4624 201.41 74.1617 201.307 72.5547L201.284 71.8467V49.4902C201.284 47.5723 201.763 46.0276 202.848 44.9707C203.93 43.9172 205.506 43.4551 207.466 43.4551H255.104ZM327.75 75.9736L328.028 76.791H317.086L316.949 76.3594L312.143 61.1357H286.505L281.792 76.3564L281.656 76.791H270.723L293.287 12.0752H305.914L327.75 75.9736ZM347.373 76.791H337.542V12.0752H347.373V76.791ZM210.376 68.9414L210.385 69.1084C210.459 69.9283 211.075 70.4931 211.957 70.4932H250.606L250.779 70.4854C251.624 70.4114 252.186 69.7942 252.187 68.9414V63.8398H210.376V68.9414ZM211.957 50.8389C211.058 50.8389 210.376 51.5222 210.376 52.3906V57.1738H252.187V52.3906L252.178 52.2295C252.105 51.4917 251.533 50.9199 250.772 50.8467L250.606 50.8389H211.957ZM289.079 52.5107H309.664L299.422 19.79L289.079 52.5107ZM149.466 31.5469C154.162 32.6843 160.579 34.3715 166.695 36.4326L167.116 36.5742V45.5264L166.297 45.2451C160.197 43.1471 153.802 41.3982 149.17 40.2236L148.703 40.1064V31.3623L149.466 31.5469ZM220.273 30.2998H242.534L244.737 23.5156H254.216L252.006 30.2998H267.413V37.6904H195.691L194.94 30.2998H210.969L208.759 23.5156H218.151L220.273 30.2998ZM149.478 13.2451C155.2 14.732 160.987 16.5032 166.702 18.5088L167.116 18.6543V27.3682L166.295 27.083C160.611 25.106 154.856 23.3627 149.168 21.9023L148.703 21.7832V13.0439L149.478 13.2451ZM235.792 13.6738H263.083V21.0576H199.938L199.188 13.6738H226.527V7.77832H235.792V13.6738Z" fill="black"/>
<path d="M491.337 16.956H509.325V25.345H480.851V34.5407H499.565C501.232 34.5407 502.576 35.0516 503.598 36.0733C504.62 37.095 505.158 38.4663 505.211 40.1871C505.642 50.9961 505.642 61.2941 505.211 71.0813C505.104 73.1786 504.297 74.9263 502.791 76.3245C501.34 77.6689 499.511 78.4217 497.306 78.5831C492.305 79.0133 487.25 78.7444 482.142 77.7764L480.367 69.2261C484.669 70.1403 488.837 70.4629 492.87 70.194C494.644 70.0327 495.612 69.1454 495.774 67.5321C496.311 60.38 496.311 52.7707 495.774 44.7043C495.666 43.5212 495.075 42.9297 493.999 42.9297H480.69C480.313 51.3725 478.754 58.6591 476.011 64.7896C472.946 71.6729 468.214 77.4269 461.814 82.0516L459.717 71.9686C467.622 64.6551 471.44 53.174 471.171 37.5252V25.345H462.863L462.056 16.956H481.658V7.67969H491.337V16.956ZM454.313 58.8205L462.46 57.0459V65.1122L437.535 71.2427L435.599 63.015L444.794 60.9984V34.6214H437.051L436.244 26.2323H444.794V7.67969H454.313V26.2323H461.895V34.6214H454.313V58.8205Z" fill="black"/>
<path d="M399.463 67.8548H429.469V76.2438H360.502L359.695 67.8548H389.46V22.9252H364.454L363.648 14.5361H425.84V22.9252H399.463V67.8548Z" fill="black"/>
<path d="M22.0087 34.2702C22.0087 40.3487 17.0801 45.2771 11.007 45.2771C4.92849 45.2771 0 40.3487 0 34.2702C0 28.1917 4.92849 23.2686 11.007 23.2686C17.0801 23.2686 22.0087 28.1917 22.0087 34.2702Z" fill="black"/>
<path d="M22.0087 56.1691C22.0087 62.2475 17.0801 67.1707 11.007 67.1707C4.92849 67.1707 0 62.2475 0 56.1691C0 50.0906 4.92849 45.1621 11.007 45.1621C17.0801 45.1621 22.0087 50.0906 22.0087 56.1691Z" fill="black"/>
<path d="M22.0087 34.2702C22.0087 40.3487 17.0801 45.2771 11.007 45.2771C4.92849 45.2771 0 40.3487 0 34.2702C0 28.1917 4.92849 23.2686 11.007 23.2686C17.0801 23.2686 22.0087 28.1917 22.0087 34.2702Z" fill="black"/>
<path d="M30.9164 23.6507C26.6186 27.9485 19.957 28.2559 16.0407 24.3396C12.1191 20.418 12.4265 13.7566 16.7244 9.45875C21.0222 5.1609 27.6838 4.85351 31.6001 8.7751C35.5217 12.6914 35.2143 19.3528 30.9164 23.6507Z" fill="black"/>
<path d="M30.9164 80.969C26.6186 85.2669 19.957 85.5742 16.0407 81.6526C12.1191 77.7363 12.4265 71.075 16.7244 66.7771C21.0222 62.4793 27.6838 62.1719 31.6001 66.0935C35.5217 70.0097 35.2143 76.6712 30.9164 80.969Z" fill="black"/>
<path d="M76.9682 32.622C81.2661 28.3241 85.4261 25.5154 86.2635 26.3527C87.1008 27.1901 84.292 31.3501 79.9942 35.648C75.6963 39.9458 71.5362 42.7492 70.6989 41.9172C69.8669 41.0799 72.6704 36.9198 76.9682 32.622Z" fill="black"/>
<path d="M77.6104 55.293C81.9082 50.9951 85.7822 47.9003 86.2644 48.3825C86.7467 48.8701 83.657 52.7439 79.3591 57.0418C75.0613 61.3396 71.1875 64.4292 70.6999 63.947C70.2177 63.4647 73.3126 59.5908 77.6104 55.293Z" fill="black"/>
<path d="M61.8393 12.601C66.1371 8.30319 71.336 6.53312 73.4504 8.6423C75.5596 10.7568 73.7898 15.9556 69.4919 20.2534C65.1941 24.5513 60.0004 26.3213 57.8859 24.2068C55.7714 22.0924 57.5414 16.8989 61.8393 12.601Z" fill="black"/>
<path d="M62.4201 70.5666C66.718 66.2688 71.6518 64.239 73.4483 66.0303C75.2395 67.8215 73.2098 72.7606 68.912 77.0584C64.6141 81.3563 59.675 83.3859 57.8838 81.5947C56.0926 79.7982 58.1223 74.8645 62.4201 70.5666Z" fill="black"/>
<path d="M39.5014 75.463C43.7993 71.1651 49.6021 70.0045 52.4638 72.8662C55.3308 75.7279 54.1704 81.5361 49.8726 85.834C45.5747 90.1318 39.7664 91.2924 36.9047 88.4307C34.0377 85.5637 35.2036 79.7608 39.5014 75.463Z" fill="black"/>
<path d="M39.0834 3.93695C43.3812 -0.360897 49.428 -1.283 52.5918 1.88077C55.7556 5.04453 54.8335 11.0912 50.5357 15.389C46.2378 19.6869 40.191 20.6037 37.0273 17.4452C33.8635 14.2815 34.7855 8.2348 39.0834 3.93695Z" fill="black"/>
</svg>
