<svg preserveAspectRatio="none" overflow="visible" style="display: block;" width="11.0914" height="11.0854" viewBox="0 0 11.0914 11.0854" fill="none" xmlns="http://www.w3.org/2000/svg">
<path id="Vector" fill-rule="evenodd" clip-rule="evenodd" d="M8.83886 2.66118C7.49163 1.11803 5.19917 0.690807 3.35813 1.75373C2.09902 2.48068 1.3376 3.73851 1.19443 5.08352C1.16033 5.40388 0.872989 5.63593 0.552632 5.60183C0.232276 5.56773 0.00021856 5.28039 0.0343179 4.96003C0.215255 3.26016 1.17909 1.66465 2.7748 0.743368C5.18329 -0.647175 8.20172 -0.0243074 9.88109 2.08974L9.94446 1.85322C10.0278 1.54203 10.3477 1.35736 10.6589 1.44074C10.9701 1.52412 11.1548 1.84398 11.0714 2.15517L10.6443 3.74887C10.6043 3.89831 10.5065 4.02572 10.3726 4.10307C10.2386 4.18043 10.0794 4.20139 9.92991 4.16135L8.33622 3.73432C8.02503 3.65094 7.84035 3.33107 7.92374 3.01988C8.00712 2.70869 8.32698 2.52402 8.63817 2.6074L8.83886 2.66118ZM10.5384 5.48358C10.8588 5.51768 11.0909 5.80502 11.0568 6.12538C10.8758 7.82525 9.91199 9.42076 8.31628 10.342C5.9079 11.7325 2.88965 11.1098 1.21023 8.99598L1.14693 9.2322C1.06355 9.54339 0.743689 9.72806 0.4325 9.64468C0.121312 9.5613 -0.0633613 9.24144 0.0200214 8.93025L0.447051 7.33655C0.530434 7.02536 0.850297 6.84069 1.16149 6.92407L2.75518 7.3511C3.06637 7.43448 3.25104 7.75435 3.16766 8.06554C3.08428 8.37672 2.76441 8.5614 2.45323 8.47802L2.25213 8.42413C3.59935 9.96736 5.89187 10.3946 7.73295 9.33168C8.99206 8.60473 9.75348 7.3469 9.89664 6.00189C9.93074 5.68154 10.2181 5.44948 10.5384 5.48358Z" fill="#1C1F23" fill-opacity="0.8"/>
</svg>
