<svg preserveAspectRatio="none" overflow="visible" style="display: block;" width="13.98" height="14" viewBox="0 0 13.98 14" fill="none" xmlns="http://www.w3.org/2000/svg">
<path id="Union" d="M4.17702 7.34806C5.78417 7.15898 7.40746 7.15434 9.0155 7.33313V8.51595H9.0132C7.4524 8.33233 5.87524 8.33233 4.31444 8.51595L4.07098 8.54466C2.42011 8.73897 1.17593 10.1384 1.17593 11.8007C1.17605 12.0993 1.39376 12.3536 1.68887 12.3994L2.22402 12.4821C5.1661 12.9379 8.16116 12.9379 11.1032 12.4821L11.6384 12.3994C11.9335 12.3536 12.1512 12.0993 12.1513 11.8007C12.1513 11.3721 12.0681 10.9609 11.9171 10.5834H13.1584C13.2685 10.9712 13.3273 11.3798 13.3273 11.8007L13.3253 11.8826C13.2869 12.7253 12.6594 13.4308 11.8183 13.5611L11.2832 13.6442C8.41307 14.0889 5.49478 14.1168 2.61867 13.7277L2.0441 13.6442L1.50896 13.5611C0.66786 13.4308 0.0403887 12.7253 0.00191396 11.8826L0 11.8007C0 9.61266 1.58648 7.75989 3.72494 7.40624L3.93356 7.37677L4.17702 7.34806ZM13.449 5.83029C13.7614 5.65043 14.1108 5.99982 13.9309 6.31223L13.7139 6.68851C13.2749 7.45116 13.2749 8.38989 13.7139 9.15254L13.9309 9.5292C14.1105 9.84155 13.7613 10.1906 13.449 10.0108L13.0727 9.79409C12.31 9.35496 11.371 9.35496 10.6083 9.79409L10.232 10.0108C9.91968 10.1906 9.5705 9.84155 9.75007 9.5292L9.96711 9.15254C10.4061 8.38989 10.4061 7.45116 9.96711 6.68851L9.75007 6.31223C9.57021 5.99982 9.9196 5.65043 10.232 5.83029L10.6083 6.04695C11.371 6.48609 12.31 6.48609 13.0727 6.04695L13.449 5.83029ZM6.66363 0C8.3955 0 9.79945 1.40396 9.79945 3.13582C9.79945 4.86769 8.3955 6.27165 6.66363 6.27165C4.93176 6.27165 3.5278 4.86769 3.5278 3.13582C3.5278 1.40396 4.93176 0 6.66363 0ZM6.66363 1.17593C5.58121 1.17593 4.70374 2.05341 4.70374 3.13582C4.70374 4.21824 5.58121 5.09572 6.66363 5.09572C7.74604 5.09572 8.62352 4.21824 8.62352 3.13582C8.62352 2.05341 7.74604 1.17593 6.66363 1.17593Z" fill="#161823"/>
</svg>
