<svg preserveAspectRatio="none" overflow="visible" style="display: block;" width="28" height="28" viewBox="0 0 28 28" fill="none" xmlns="http://www.w3.org/2000/svg">
<g id="logo">
<path id="Subtract" d="M25.5264 1.05575C26.5934 0.300571 27.937 1.53331 27.2764 2.66121L20.6357 13.9884C20.195 14.7402 20.6667 15.6979 21.5312 15.8077L24.7754 16.2198C25.8534 16.3568 26.2228 17.7321 25.3584 18.3907L21.4814 21.3448C20.7161 21.9283 20.901 23.1274 21.8066 23.4532L23.5723 24.0889C24.8532 24.5499 24.5226 26.4464 23.1611 26.4464H6.56543C2.93958 26.4463 0.000231407 23.5067 0 19.8809L0 2.54207C0 1.22602 1.80022 0.849848 2.32715 2.05575L4.95996 8.08211C5.30563 8.87302 6.34298 9.06074 6.94434 8.44149L10.126 5.1661C10.782 4.49079 11.9231 4.7865 12.1689 5.69539L12.8086 8.05965C13.0291 8.87488 13.9944 9.22152 14.6836 8.73348L25.5264 1.05575ZM4.66016 15.4786C4.12765 15.4786 3.69629 15.91 3.69629 16.4425V18.2276C3.69656 18.7599 4.12782 19.1915 4.66016 19.1915C5.19229 19.1912 5.62375 18.7597 5.62402 18.2276L5.62402 16.4425C5.62402 15.9101 5.19245 15.4788 4.66016 15.4786ZM8.97559 15.4786C8.44308 15.4786 8.01172 15.91 8.01172 16.4425V18.2276C8.01204 18.7599 8.44328 19.1915 8.97559 19.1915C9.50771 19.1913 9.93913 18.7597 9.93945 18.2276V16.4425C9.93945 15.9101 9.50791 15.4788 8.97559 15.4786Z" fill="url(#paint0_linear_0_42)"/>
</g>
<defs>
<linearGradient id="paint0_linear_0_42" x1="3.66628" y1="21.6489" x2="29.8092" y2="-1.61711" gradientUnits="userSpaceOnUse">
<stop stop-color="#161823"/>
<stop offset="1" stop-color="#161823" stop-opacity="0.44"/>
</linearGradient>
</defs>
</svg>
