<svg preserveAspectRatio="none" overflow="visible" style="display: block;" width="16.6706" height="17.7" viewBox="0 0 16.6706 17.7" fill="none" xmlns="http://www.w3.org/2000/svg">
<path id="Subtract" fill-rule="evenodd" clip-rule="evenodd" d="M11.9382 0.1C14.4966 0.1 16.5706 2.17398 16.5706 4.73235V12.9676C16.5706 15.526 14.4966 17.6 11.9382 17.6H4.73235C2.17398 17.6 0.1 15.526 0.1 12.9676V4.73235C0.1 2.17398 2.17398 0.1 4.73235 0.1H11.9382ZM6.79118 16.0559H11.9382L12.0971 16.0519C13.6762 15.9719 14.9424 14.7056 15.0224 13.1265L15.0265 12.9676V4.73235C15.0265 3.02677 13.6438 1.64412 11.9382 1.64412H6.79118V16.0559ZM3.18824 6.27647C2.90397 6.27647 2.67353 6.50691 2.67353 6.79118C2.67353 7.07544 2.90397 7.30588 3.18824 7.30588H4.73235C5.01662 7.30588 5.24706 7.07544 5.24706 6.79118C5.24706 6.50691 5.01662 6.27647 4.73235 6.27647H3.18824ZM3.18824 4.21765C2.90397 4.21765 2.67353 4.44809 2.67353 4.73235C2.67353 5.01662 2.90397 5.24706 3.18824 5.24706H4.73235C5.01662 5.24706 5.24706 5.01662 5.24706 4.73235C5.24706 4.44809 5.01662 4.21765 4.73235 4.21765H3.18824Z" fill="#161823" stroke="#161823" stroke-width="0.2"/>
</svg>
